<svg width="18" height="15" viewBox="0 0 18 15" fill="none" xmlns="http://www.w3.org/2000/svg">
<path d="M10.1671 7.69412C10.6471 7.28659 11.0322 6.78255 11.2961 6.2162C11.56 5.64985 11.6966 5.03445 11.6966 4.41176C11.6966 3.24169 11.2226 2.11954 10.379 1.29218C9.5353 0.46481 8.39104 0 7.19791 0C6.00479 0 4.86052 0.46481 4.01685 1.29218C3.17319 2.11954 2.69922 3.24169 2.69922 4.41176C2.69921 5.03445 2.8358 5.64985 3.09971 6.2162C3.36363 6.78255 3.74869 7.28659 4.22877 7.69412C2.96926 8.25343 1.90067 9.15664 1.15075 10.2958C0.400829 11.4349 0.00132429 12.7617 0 14.1176C0 14.3517 0.0947936 14.5761 0.263527 14.7416C0.432261 14.907 0.661114 15 0.899739 15C1.13836 15 1.36722 14.907 1.53595 14.7416C1.70468 14.5761 1.79948 14.3517 1.79948 14.1176C1.79948 12.7136 2.36824 11.367 3.38064 10.3741C4.39305 9.3813 5.76616 8.82353 7.19791 8.82353C8.62967 8.82353 10.0028 9.3813 11.0152 10.3741C12.0276 11.367 12.5963 12.7136 12.5963 14.1176C12.5963 14.3517 12.6911 14.5761 12.8599 14.7416C13.0286 14.907 13.2575 15 13.4961 15C13.7347 15 13.9636 14.907 14.1323 14.7416C14.301 14.5761 14.3958 14.3517 14.3958 14.1176C14.3945 12.7617 13.995 11.4349 13.2451 10.2958C12.4952 9.15664 11.4266 8.25343 10.1671 7.69412ZM7.19791 7.05882C6.66406 7.05882 6.14219 6.90358 5.69831 6.61271C5.25442 6.32185 4.90846 5.90844 4.70416 5.42475C4.49986 4.94106 4.44641 4.40883 4.55056 3.89535C4.65471 3.38187 4.91179 2.91021 5.28928 2.54001C5.66677 2.16981 6.14773 1.91771 6.67132 1.81557C7.19492 1.71343 7.73764 1.76585 8.23086 1.9662C8.72408 2.16655 9.14564 2.50583 9.44223 2.94114C9.73882 3.37644 9.89713 3.88823 9.89713 4.41176C9.89713 5.11381 9.61275 5.7871 9.10655 6.28352C8.60035 6.77994 7.91379 7.05882 7.19791 7.05882ZM17.0141 7.5L17.7339 6.80294C17.8177 6.72067 17.8843 6.623 17.9297 6.51551C17.9751 6.40802 17.9985 6.29282 17.9985 6.17647C17.9985 6.06012 17.9751 5.94492 17.9297 5.83743C17.8843 5.72994 17.8177 5.63227 17.7339 5.55C17.65 5.46773 17.5504 5.40247 17.4408 5.35795C17.3312 5.31342 17.2137 5.29051 17.095 5.29051C16.9764 5.29051 16.8589 5.31342 16.7493 5.35795C16.6397 5.40247 16.5401 5.46773 16.4562 5.55L15.7454 6.25588L15.0346 5.55C14.9508 5.46773 14.8512 5.40247 14.7415 5.35795C14.6319 5.31342 14.5145 5.29051 14.3958 5.29051C14.1562 5.29051 13.9264 5.38385 13.757 5.55C13.6731 5.63227 13.6066 5.72994 13.5612 5.83743C13.5158 5.94492 13.4924 6.06012 13.4924 6.17647C13.4924 6.41144 13.5876 6.63679 13.757 6.80294L14.4768 7.5L13.757 8.19706C13.6727 8.27909 13.6057 8.37667 13.5601 8.4842C13.5144 8.59172 13.4909 8.70705 13.4909 8.82353C13.4909 8.94001 13.5144 9.05534 13.5601 9.16286C13.6057 9.27038 13.6727 9.36797 13.757 9.45C13.8407 9.5327 13.9402 9.59834 14.0498 9.64314C14.1594 9.68793 14.2771 9.711 14.3958 9.711C14.5146 9.711 14.6322 9.68793 14.7418 9.64314C14.8515 9.59834 14.951 9.5327 15.0346 9.45L15.7454 8.74412L16.4562 9.45C16.5399 9.5327 16.6394 9.59834 16.749 9.64314C16.8587 9.68793 16.9763 9.711 17.095 9.711C17.2138 9.711 17.3314 9.68793 17.4411 9.64314C17.5507 9.59834 17.6502 9.5327 17.7339 9.45C17.8182 9.36797 17.8851 9.27038 17.9308 9.16286C17.9765 9.05534 18 8.94001 18 8.82353C18 8.70705 17.9765 8.59172 17.9308 8.4842C17.8851 8.37667 17.8182 8.27909 17.7339 8.19706L17.0141 7.5Z" fill="#F7B61C"/>
</svg>
