<svg width="31" height="28" viewBox="0 0 31 28" fill="none" xmlns="http://www.w3.org/2000/svg">
<path d="M28.1738 2.96623C26.5303 1.28855 24.3517 0.264585 22.0316 0.0793095C19.7115 -0.105966 17.4028 0.559659 15.5225 1.95595C13.5499 0.462059 11.0946 -0.215343 8.65107 0.0601574C6.20753 0.335657 3.95728 1.54359 2.35345 3.44072C0.749617 5.33784 -0.0886568 7.78324 0.00743477 10.2845C0.103526 12.7857 1.12685 15.1569 2.87132 16.9207L12.4993 26.7393C13.3055 27.5472 14.3913 28 15.5225 28C16.6537 28 17.7396 27.5472 18.5458 26.7393L28.1738 16.9207C29.984 15.0663 31 12.558 31 9.94346C31 7.32894 29.984 4.82061 28.1738 2.96623ZM25.9877 14.7423L16.3598 24.5451C16.2502 24.6578 16.1198 24.7472 15.9761 24.8082C15.8324 24.8692 15.6782 24.9007 15.5225 24.9007C15.3668 24.9007 15.2127 24.8692 15.069 24.8082C14.9253 24.7472 14.7949 24.6578 14.6853 24.5451L5.05738 14.6949C3.84149 13.4295 3.16064 11.7296 3.16064 9.95925C3.16064 8.18895 3.84149 6.48903 5.05738 5.22357C6.29638 3.97807 7.96742 3.27968 9.70856 3.27968C11.4497 3.27968 13.1207 3.97807 14.3597 5.22357C14.5039 5.37152 14.6753 5.48896 14.8643 5.5691C15.0532 5.64924 15.2559 5.6905 15.4605 5.6905C15.6652 5.6905 15.8678 5.64924 16.0568 5.5691C16.2457 5.48896 16.4172 5.37152 16.5613 5.22357C17.8003 3.97807 19.4714 3.27968 21.2125 3.27968C22.9536 3.27968 24.6247 3.97807 25.8637 5.22357C27.0963 6.47245 27.7995 8.16315 27.8227 9.9335C27.8458 11.7038 27.1872 13.413 25.9877 14.6949V14.7423Z" fill="#FF0000"/>
</svg>
