<svg width="20" height="16" viewBox="0 0 20 16" fill="none" xmlns="http://www.w3.org/2000/svg">
<path fill-rule="evenodd" clip-rule="evenodd" d="M6.36453 6.12005C6.03995 6.12005 5.72865 6.24899 5.49914 6.47851C5.26962 6.70802 5.14068 7.01932 5.14068 7.3439C5.14068 7.66849 5.26962 7.97978 5.49914 8.2093C5.72865 8.43881 6.03995 8.56775 6.36453 8.56775C6.68912 8.56775 7.00041 8.43881 7.22992 8.2093C7.45944 7.97978 7.58838 7.66849 7.58838 7.3439C7.58838 7.01932 7.45944 6.70802 7.22992 6.47851C7.00041 6.24899 6.68912 6.12005 6.36453 6.12005ZM4.16138 7.3439C4.16138 6.75959 4.39349 6.19921 4.80667 5.78604C5.21984 5.37286 5.78022 5.14075 6.36453 5.14075C6.94884 5.14075 7.50922 5.37286 7.9224 5.78604C8.33557 6.19921 8.56768 6.75959 8.56768 7.3439C8.56768 7.92821 8.33557 8.48859 7.9224 8.90177C7.50922 9.31494 6.94884 9.54705 6.36453 9.54705C5.78022 9.54705 5.21984 9.31494 4.80667 8.90177C4.39349 8.48859 4.16138 7.92821 4.16138 7.3439Z" fill="#F7B61C"/>
<path fill-rule="evenodd" clip-rule="evenodd" d="M6.36455 10.0368C4.83997 10.0368 3.67193 11.1689 3.67193 12.4845C3.67193 12.6144 3.62034 12.739 3.52851 12.8308C3.43669 12.9226 3.31214 12.9742 3.18228 12.9742C3.05241 12.9742 2.92787 12.9226 2.83604 12.8308C2.74421 12.739 2.69263 12.6144 2.69263 12.4845C2.69263 10.5557 4.37437 9.05754 6.36455 9.05754C8.35473 9.05754 10.0365 10.5557 10.0365 12.4845C10.0365 12.5488 10.0238 12.6125 9.99922 12.6719C9.97462 12.7312 9.93856 12.7852 9.89311 12.8307C9.84766 12.8761 9.7937 12.9122 9.73432 12.9368C9.67493 12.9614 9.61128 12.974 9.54701 12.974C9.48273 12.974 9.41908 12.9614 9.35969 12.9368C9.30031 12.9122 9.24635 12.8761 9.2009 12.8307C9.15545 12.7852 9.1194 12.7312 9.0948 12.6719C9.0702 12.6125 9.05754 12.5488 9.05754 12.4845C9.05754 11.1689 7.88987 10.0368 6.36455 10.0368ZM11.7505 5.87509C11.7505 5.60483 11.9697 5.38562 12.2404 5.38562H16.4014C16.5312 5.38562 16.6558 5.43721 16.7476 5.52904C16.8394 5.62086 16.891 5.74541 16.891 5.87527C16.891 6.00513 16.8394 6.12968 16.7476 6.22151C16.6558 6.31333 16.5312 6.36492 16.4014 6.36492H12.24C12.1757 6.36497 12.1119 6.35233 12.0525 6.32773C11.993 6.30313 11.939 6.26706 11.8935 6.22156C11.848 6.17607 11.8119 6.12205 11.7873 6.0626C11.7627 6.00314 11.7505 5.93943 11.7505 5.87509ZM11.7505 12.4357C11.7505 12.1651 11.9697 11.9459 12.2404 11.9459H16.4014C16.4657 11.9459 16.5294 11.9585 16.5888 11.9832C16.6482 12.0078 16.7022 12.0438 16.7476 12.0893C16.7931 12.1348 16.8292 12.1887 16.8538 12.2481C16.8784 12.3076 16.891 12.3712 16.891 12.4355C16.891 12.4998 16.8784 12.5635 16.8538 12.6229C16.8292 12.6823 16.7931 12.7363 16.7476 12.7818C16.7022 12.8272 16.6482 12.8633 16.5888 12.8879C16.5294 12.9125 16.4657 12.9252 16.4014 12.9252H12.24C12.1757 12.9252 12.1119 12.9126 12.0525 12.888C11.993 12.8634 11.939 12.8273 11.8935 12.7818C11.848 12.7363 11.8119 12.6823 11.7873 12.6229C11.7627 12.5634 11.7501 12.4997 11.7502 12.4353L11.7505 12.4357ZM11.7505 9.15558C11.7505 8.88533 11.9697 8.66612 12.2404 8.66612H16.4014C16.4657 8.66612 16.5293 8.67878 16.5887 8.70338C16.6481 8.72797 16.702 8.76403 16.7475 8.80948C16.7929 8.85493 16.829 8.90889 16.8536 8.96827C16.8782 9.02766 16.8909 9.09131 16.8909 9.15558C16.8909 9.21986 16.8782 9.28351 16.8536 9.3429C16.829 9.40228 16.7929 9.45624 16.7475 9.50169C16.702 9.54714 16.6481 9.58319 16.5887 9.60779C16.5293 9.63239 16.4657 9.64505 16.4014 9.64505H12.24C12.1757 9.6451 12.112 9.63247 12.0526 9.6079C11.9931 9.58332 11.9391 9.54728 11.8937 9.50182C11.8482 9.45636 11.8121 9.40239 11.7875 9.34298C11.7628 9.28357 11.7505 9.21989 11.7505 9.15558Z" fill="#F7B61C"/>
<path fill-rule="evenodd" clip-rule="evenodd" d="M8.32312 1.46877C8.32312 1.07923 8.47787 0.70564 8.75331 0.430193C9.02876 0.154745 9.40235 0 9.79189 0C10.1814 0 10.555 0.154745 10.8305 0.430193C11.1059 0.70564 11.2607 1.07923 11.2607 1.46877V3.42701C11.2607 3.81655 11.1059 4.19014 10.8305 4.46558C10.555 4.74103 10.1814 4.89578 9.79189 4.89578C9.40235 4.89578 9.02876 4.74103 8.75331 4.46558C8.47787 4.19014 8.32312 3.81655 8.32312 3.42701V1.46877ZM9.79189 0.979302C9.52164 0.979302 9.30242 1.19852 9.30242 1.46877V3.42701C9.30242 3.55682 9.35399 3.68132 9.44578 3.77311C9.53758 3.8649 9.66207 3.91647 9.79189 3.91647C9.9217 3.91647 10.0462 3.8649 10.138 3.77311C10.2298 3.68132 10.2814 3.55682 10.2814 3.42701V1.46877C10.2814 1.19852 10.0621 0.979302 9.79189 0.979302Z" fill="#F7B61C"/>
<path fill-rule="evenodd" clip-rule="evenodd" d="M8.32315 2.44812H2.44807C1.7988 2.44812 1.17613 2.70604 0.717023 3.16514C0.257921 3.62425 0 4.24692 0 4.89619V13.219C0 13.8682 0.257921 14.4909 0.717023 14.95C1.17613 15.4091 1.7988 15.667 2.44807 15.667H17.1358C17.785 15.667 18.4077 15.4091 18.8668 14.95C19.3259 14.4909 19.5838 13.8682 19.5838 13.219V4.89619C19.5838 4.24692 19.3259 3.62425 18.8668 3.16514C18.4077 2.70604 17.785 2.44812 17.1358 2.44812H11.2607V2.93759C11.2607 3.14064 11.2607 3.29854 11.2541 3.42742H17.1358C17.5253 3.42742 17.8989 3.58217 18.1743 3.85761C18.4498 4.13306 18.6045 4.50665 18.6045 4.89619V13.219C18.6045 13.6085 18.4498 13.9821 18.1743 14.2575C17.8989 14.533 17.5253 14.6877 17.1358 14.6877H2.44807C2.05853 14.6877 1.68494 14.533 1.40949 14.2575C1.13405 13.9821 0.979302 13.6085 0.979302 13.219V4.89619C0.979302 4.50665 1.13405 4.13306 1.40949 3.85761C1.68494 3.58217 2.05853 3.42742 2.44807 3.42742H8.32976C8.32315 3.2989 8.32315 3.14101 8.32315 2.93759V2.44812Z" fill="#F7B61C"/>
</svg>
