<svg width="36" height="50" viewBox="0 0 36 50" fill="none" xmlns="http://www.w3.org/2000/svg">
<path d="M18 2.5V17.5M18 2.5C10.5463 2.5 5.87047 8.05578 3.97255 10.8851C3.7243 11.2552 3.60018 11.4402 3.4216 11.847C3.2973 12.1303 3.1329 12.6705 3.07835 12.9749C3 13.4123 3 13.7377 3 14.3886V32.5C3 40.7842 9.71573 47.5 18 47.5C26.2842 47.5 33 40.7842 33 32.5V14.3886C33 13.7377 33 13.4123 32.9218 12.9749C32.867 12.6705 32.7027 12.1303 32.5785 11.847C32.3997 11.4402 32.2758 11.2552 32.0275 10.8851C30.1295 8.05578 25.4537 2.5 18 2.5Z" stroke="#4D4D4D" stroke-width="5" stroke-linecap="round" stroke-linejoin="round"/>
</svg>
