<svg width="12" height="16" viewBox="0 0 12 16" fill="none" xmlns="http://www.w3.org/2000/svg">
<path d="M4.90909 0C3.10909 0 1.63636 1.54286 1.63636 3.42857V5.71429C0.709091 5.71429 0 6.45714 0 7.42857V10.8571C0 12.2286 0.490909 13.5429 1.41818 14.5143C2.34545 15.4857 3.6 16 4.90909 16C7.25455 16 9.21818 14.2857 9.70909 12H9.81818C10.4182 12 10.9636 11.7714 11.3455 11.3143C11.7818 10.8571 12 10.2857 12 9.71429C12 9.14286 11.7818 8.51429 11.3455 8.11429C10.9091 7.71429 10.4182 7.42857 9.81818 7.42857C9.81818 6.45714 9.10909 5.71429 8.18182 5.71429V3.42857C8.18182 1.54286 6.70909 0 4.90909 0ZM10.5818 8.91429C10.8 9.14286 10.9091 9.42857 10.9091 9.71429C10.9091 10 10.8 10.2857 10.5818 10.5143C10.3091 10.8 9.87273 10.9143 9.43636 10.8C9 10.6286 8.72727 10.2286 8.72727 9.71429C8.72727 9.42857 8.83636 9.14286 9.05455 8.91429C9.16364 8.8 9.32727 8.68571 9.49091 8.62857C9.6 8.57143 9.70909 8.57143 9.81818 8.57143C10.0909 8.57143 10.3636 8.68571 10.5818 8.91429ZM8.72727 7.42857V7.77143C8.56364 7.88572 8.4 8 8.29091 8.11429C8.01818 8.4 7.8 8.74286 7.74546 9.14286H2.72727C2.4 9.14286 2.18182 9.37143 2.18182 9.71429V10.8571C2.18182 11.2 2.4 11.4286 2.72727 11.4286C3.05455 11.4286 3.27273 11.2 3.27273 10.8571V10.2857H4.36364V10.8571C4.36364 11.2 4.58182 11.4286 4.90909 11.4286C5.23636 11.4286 5.45455 11.2 5.45455 10.8571V10.2857H7.69091C7.85455 10.8571 8.18182 11.3143 8.61818 11.6571C8.29091 13.4857 6.76364 14.8571 4.90909 14.8571C3.87273 14.8571 2.94545 14.4571 2.18182 13.7143C1.47273 12.9714 1.09091 11.9429 1.09091 10.8571V7.42857C1.09091 7.08571 1.30909 6.85714 1.63636 6.85714H8.18182C8.50909 6.85714 8.72727 7.08571 8.72727 7.42857ZM2.72727 5.71429V3.42857C2.72727 2.17143 3.70909 1.14286 4.90909 1.14286C6.10909 1.14286 7.09091 2.17143 7.09091 3.42857V5.71429H2.72727Z" fill="#F7B61C"/>
</svg>
