<svg width="32" height="32" viewBox="0 0 32 32" fill="none" xmlns="http://www.w3.org/2000/svg">
<g clip-path="url(#clip0_60_29)">
<path d="M16 0C12.8355 0 9.74207 0.938384 7.11088 2.69649C4.4797 4.45459 2.42894 6.95345 1.21793 9.87706C0.0069325 12.8007 -0.309921 16.0177 0.307443 19.1214C0.924806 22.2251 2.44866 25.0761 4.6863 27.3137C6.92394 29.5513 9.77487 31.0752 12.8786 31.6926C15.9823 32.3099 19.1993 31.9931 22.1229 30.7821C25.0466 29.5711 27.5454 27.5203 29.3035 24.8891C31.0616 22.2579 32 19.1645 32 16C32 11.7565 30.3143 7.68687 27.3137 4.68629C24.3131 1.68571 20.2435 0 16 0ZM16 30C14.0415 29.9956 12.1057 29.5804 10.3178 28.7812C8.52979 27.9819 6.92939 26.8164 5.62001 25.36C6.4619 24.2899 7.6757 23.5759 9.02001 23.36C9.88887 23.2168 10.75 23.0299 11.6 22.8C12.2686 22.7126 12.9102 22.4806 13.48 22.12C13.4586 21.6067 13.2688 21.1147 12.94 20.72C12.0937 20.0259 11.4162 19.1485 10.9588 18.1541C10.5015 17.1597 10.2762 16.0743 10.3 14.98C10.1659 13.3207 10.6878 11.675 11.7535 10.3962C12.8192 9.11737 14.3438 8.30734 16 8.14C17.6599 8.30245 19.1895 9.11039 20.2594 10.3898C21.3293 11.6692 21.8538 13.3176 21.72 14.98C21.7484 16.0779 21.5253 17.1677 21.0677 18.166C20.6101 19.1644 19.9302 20.0448 19.08 20.74C18.75 21.1262 18.5598 21.6124 18.54 22.12C19.1166 22.4393 19.7472 22.6494 20.4 22.74C21.2433 22.9446 22.0982 23.0982 22.96 23.2C23.6568 23.2792 24.3306 23.497 24.942 23.8405C25.5534 24.1839 26.0899 24.6462 26.52 25.2C25.2095 26.7032 23.593 27.909 21.7787 28.7369C19.9644 29.5647 17.9942 29.9953 16 30Z" fill="white"/>
</g>
<defs>
<clipPath id="clip0_60_29">
<rect width="32" height="32" fill="white"/>
</clipPath>
</defs>
</svg>
